<?xml version="1.0" encoding="UTF-8"?>
<svg viewBox="0 0 855.97 249.1" xmlns="http://www.w3.org/2000/svg">
<defs>
<style>.cls-1{fill:#fff;}</style>
</defs>
<g data-name="Layer 2">
<g data-name="Layer 1">
<rect class="cls-1" x="692.73" y="43.27" width="34.99" height="132.14" rx="4.62"/>
<path class="cls-1" d="M856,48.09v15A4.82,4.82,0,0,1,851.15,68H824.82a4.8,4.8,0,0,0-4.8,4.81v97.82a4.81,4.81,0,0,1-4.81,4.82H789.85a4.82,4.82,0,0,1-4.82-4.82V72.77a4.8,4.8,0,0,0-4.8-4.81H753.9a4.82,4.82,0,0,1-4.82-4.82v-15a4.83,4.83,0,0,1,4.82-4.82h97.25A4.83,4.83,0,0,1,856,48.09Z"/>
<path class="cls-1" d="M322.08,138.7q-.16,17.16-13.53,26.49t-39.13,9.07A115.88,115.88,0,0,1,233.73,168a4.18,4.18,0,0,1-2.6-5.08l4.42-15.46a4.16,4.16,0,0,1,5.29-2.81q15.65,5.06,28.44,5.19,19.11.19,19.21-9.17,0-4.09-4.8-7A96.16,96.16,0,0,0,268.34,127a190,190,0,0,1-18.18-7.5,37.4,37.4,0,0,1-12.19-9.6,22.3,22.3,0,0,1-5-15.08q.18-18,13.46-27.08t36.68-8.9a105.61,105.61,0,0,1,18.21,1.85A82,82,0,0,1,314,64a4.16,4.16,0,0,1,2.54,5.06l-4.44,15.51a4.16,4.16,0,0,1-5.27,2.83,79.08,79.08,0,0,0-23-4.18q-17.19-.17-17.26,7.83c0,2.73,1.43,5,4.42,6.69s7.83,3.72,14.58,6a162.18,162.18,0,0,1,18.65,7.42,36.61,36.61,0,0,1,12.69,10.27Q322.18,128.15,322.08,138.7Z"/>
<path class="cls-1" d="M449.08,66.52,448,170.11a3.62,3.62,0,0,1-3.66,3.59l-19.06-.2a3.63,3.63,0,0,1-3.37-2.36l-1.08-2.91a3.61,3.61,0,0,0-5.09-1.92q-17.28,9.25-33.37,9.1-21.67-.22-29.83-11.82c-5.47-7.74-8.1-18.82-8-33.26l.66-64.86a3.62,3.62,0,0,1,3.65-3.59l26.72.27a3.62,3.62,0,0,1,3.57,3.66l-.61,60.58c-.1,9.1.92,15.42,3,19s6.24,5.32,12.35,5.39,12.27-1.73,18.61-5.38a3.6,3.6,0,0,0,1.77-3.08l.77-76.1a3.62,3.62,0,0,1,3.66-3.59l26.71.27A3.62,3.62,0,0,1,449.08,66.52Z"/>
<path class="cls-1" d="M550.7,89.69a4.75,4.75,0,0,1-4.68,4.7,125.33,125.33,0,0,0-13.91,1,86.7,86.7,0,0,0-14.86,3.39,4.79,4.79,0,0,0-3.37,4.51l-.68,66.37a4.77,4.77,0,0,1-4.81,4.72L484,174.1a4.77,4.77,0,0,1-4.72-4.81l1-101.31a4.76,4.76,0,0,1,4.81-4.71l17.15.17a4.77,4.77,0,0,1,4.41,3.09l3.11,8.27a1.43,1.43,0,0,0,2.21.61,68.13,68.13,0,0,1,18.49-10.32,59.34,59.34,0,0,1,15.46-3.15,4.75,4.75,0,0,1,5,4.81Z"/>
<path class="cls-1" d="M675.08,69.63,634,174.49a3.29,3.29,0,0,1-3.09,2.08l-29-.3a3.28,3.28,0,0,1-3.05-2.13l-39-105.68a3.27,3.27,0,0,1,3.11-4.4l27.4.28a3.27,3.27,0,0,1,3.09,2.3l21.67,70.18a2,2,0,0,0,3.73,0l23.1-69.72a3.28,3.28,0,0,1,3.14-2.25l27,.28A3.26,3.26,0,0,1,675.08,69.63Z"/>
<path class="cls-1" d="m411.63 225.39h-177.21a3.44 3.44 0 0 1-3.42-3.39v-24.87a3.44 3.44 0 0 1 3.45-3.44h146a35.54 35.54 0 0 1 34.55 27.48 3.44 3.44 0 0 1-3.37 4.22z"/>
<path class="cls-1" d="M198.26,170.27v52.24a26.57,26.57,0,0,1-26.58,26.59H26.59A26.58,26.58,0,0,1,0,222.51V129.18a6.64,6.64,0,0,1,10.25-5.57L35,139.67a16.25,16.25,0,0,1,7.4,13.66v42.8A10.63,10.63,0,0,0,53,206.74h92.3a10.6,10.6,0,0,0,10.61-10.61v-5.44a7.33,7.33,0,0,0-3.34-6.15L82.83,139.18A40.49,40.49,0,0,1,71,83.15a1.88,1.88,0,0,1,1.58-.86,1.85,1.85,0,0,1,1,.3l119.26,77.58A12,12,0,0,1,198.26,170.27Z"/>
<path class="cls-1" d="M198.26,26.59v98.64A6.64,6.64,0,0,1,188,130.79l-24.7-16.07a16.29,16.29,0,0,1-7.41-13.64V53a10.6,10.6,0,0,0-10.61-10.61H53A10.63,10.63,0,0,0,42.36,53v47.72a6.63,6.63,0,0,1-10.25,5.56l-24.7-16A16.29,16.29,0,0,1,0,76.55v-50A26.59,26.59,0,0,1,26.59,0H171.68A26.58,26.58,0,0,1,198.26,26.59Z"/>
</g>
</g>
</svg>
